<?xml version="1.0" standalone="no"?>
<!DOCTYPE svg PUBLIC "-//W3C//DTD SVG 20010904//EN"
 "http://www.w3.org/TR/2001/REC-SVG-20010904/DTD/svg10.dtd">
<svg version="1.0" xmlns="http://www.w3.org/2000/svg"
 width="600.000000pt" height="600.000000pt" viewBox="0 0 600.000000 600.000000"
 preserveAspectRatio="xMidYMid meet">
<metadata>
Created by potrace 1.14, written by Peter Selinger 2001-2017
</metadata>
<g transform="translate(0.000000,600.000000) scale(0.100000,-0.100000)"
fill="#000000" stroke="none">
<path d="M1533 5953 c-4 -1 -73 -4 -153 -7 -80 -3 -163 -8 -185 -11 -316 -47
-575 -172 -773 -376 -232 -239 -341 -506 -369 -909 -6 -85 -8 -2817 -3 -3185
6 -411 100 -697 311 -950 199 -240 499 -402 814 -440 28 -3 64 -8 80 -10 108
-15 350 -17 1725 -17 1359 -1 1635 2 1782 17 165 17 331 61 458 123 56 27 167
89 185 104 6 5 28 22 50 39 129 97 271 271 349 427 39 77 100 252 110 312 3
19 12 71 19 115 7 44 15 134 17 200 4 140 4 3042 0 3220 -6 309 -80 559 -229
782 -134 201 -349 372 -580 463 -113 44 -289 81 -461 97 -51 4 -3128 11 -3147
6z"/>
</g>
</svg>
